<?xml version="1.0" encoding="UTF-8" standalone="no" ?>
<!DOCTYPE svg PUBLIC "-//W3C//DTD SVG 1.1//EN" "http://www.w3.org/Graphics/SVG/1.1/DTD/svg11.dtd">
<svg xmlns="http://www.w3.org/2000/svg" xmlns:xlink="http://www.w3.org/1999/xlink" version="1.1" width="1280" height="1024" viewBox="0 0 1280 1024" xml:space="preserve">
<desc>Created with Fabric.js 4.4.0</desc>
<defs>
</defs>
<g transform="matrix(1 0 0 1 640 512)" id="background-logo"  >
<rect style="stroke: none; stroke-width: 0; stroke-dasharray: none; stroke-linecap: butt; stroke-dashoffset: 0; stroke-linejoin: miter; stroke-miterlimit: 4; fill: rgb(255,255,255); fill-rule: nonzero; opacity: 1;"  paint-order="stroke"  x="-640" y="-512" rx="0" ry="0" width="1280" height="1024" />
</g>
<g transform="matrix(1.9211538461538462 0 0 1.9211538461538462 640 409.48266100921904)" id="logo-logo"  >
<g style=""  paint-order="stroke"   >
		<g transform="matrix(0.30084180355952117 0 0 -0.30084180355952117 38.15723091420756 46.921360088199236)"  >
<path style="stroke: none; stroke-width: 1; stroke-dasharray: none; stroke-linecap: butt; stroke-dashoffset: 0; stroke-linejoin: miter; stroke-miterlimit: 4; fill: rgb(132,189,62); fill-rule: nonzero; opacity: 1;"  paint-order="stroke"  transform=" translate(-949.9724723726349, -606.2537451472633)" d="M 1151.43 710.629 C 1084.3500000000001 709.9060000000001 939.844 706.9300000000001 938.633 706.9060000000001 C 932.648 701.6410000000001 869.461 653.0430000000001 846.9960000000001 636.402 C 835.195 585.5310000000001 810.613 479.81600000000003 809.5980000000001 475.48800000000006 C 804.051 443.93000000000006 798.219 403.09000000000003 761.758 395.797 C 741.336 391.422 716.543 398.71500000000003 708.6410000000001 421.23400000000004 C 707.1290000000001 425.27700000000004 705.926 444.14500000000004 706.9300000000001 449.422 C 709.3480000000001 462.117 727.648 549.8480000000001 730.961 564.07 L 731.059 564.426 C 733.8829999999999 567.48 846.5269999999999 661.6990000000001 899.371 705.625 C 941.824 738.941 1028.1299999999999 806.957 1028.9099999999999 807.527 C 1032.6799999999998 808.5980000000001 1036.5299999999997 809.2270000000001 1040.12 809.32 C 1054.1599999999999 809.6990000000001 1139.76 809.4380000000001 1152.03 809.4140000000001 C 1182.62 809.3480000000001 1198.04 792.7070000000001 1197.6399999999999 759.9960000000001 C 1197.2399999999998 727.4220000000001 1180.9999999999998 710.9490000000001 1151.4299999999998 710.6290000000001 M 1273.6399999999999 802.8520000000001 C 1262.05 857.5980000000001 1215.2499999999998 896.3590000000002 1160.87 896.0160000000001 C 1139.86 895.883 1095.1 895.9340000000001 1059.77 895.9800000000001 C 1033.31 896.0200000000001 1012.14 896.0550000000002 1010.1899999999999 896.0160000000001 C 1010.1899999999999 896.0160000000001 674.9689999999999 626.0900000000001 661.68 615.219 C 648.031 556.3950000000001 630.6949999999999 502.20300000000003 623.6909999999999 446.71900000000005 C 614.934 377.31300000000005 672.8789999999999 320.97700000000003 741.031 316.73 C 746.2729999999999 316.406 751.578 316.387 756.914 316.69100000000003 C 805.512 319.95700000000005 855.098 349.125 873.523 394.367 C 875.445 398.793 913.34 558.383 928.27 626.402 C 996.598 625.1840000000001 1064.93 623.926 1133.26 624.152 C 1155.5 624.2230000000001 1179.53 628.8240000000001 1199.6 638.1170000000001 C 1257.6699999999998 664.9770000000001 1287.8799999999999 735.59 1273.6399999999999 802.8520000000001" stroke-linecap="round" />
</g>
		<g transform="matrix(0.30084180355952117 0 0 -0.30084180355952117 -37.59413752313242 -47.25607073470513)"  >
<path style="stroke: none; stroke-width: 1; stroke-dasharray: none; stroke-linecap: butt; stroke-dashoffset: 0; stroke-linejoin: miter; stroke-miterlimit: 4; fill: rgb(81,174,229); fill-rule: nonzero; opacity: 1;"  paint-order="stroke"  transform=" translate(-697.889558483449, -919.6517671185381)" d="M 481.57 714.938 C 477.996 715.688 474.65999999999997 716.75 471.582 718.109 C 442.344 731.25 437.969 775.008 459.848 793.969 C 477.22700000000003 810.3240000000001 501.055 809.484 524.758 808.6450000000001 C 534.8670000000001 808.2850000000001 544.957 807.926 554.5120000000001 808.902 C 559.418 808.9770000000001 658.422 810.8950000000001 705.023 811.7460000000001 C 725.98 830.258 786.684 881.9530000000001 793.086 886.7150000000001 C 793.359 887.8980000000001 826.344 1028.6100000000001 841.02 1094.0800000000002 C 847.4879999999999 1122.93 866.977 1135.39 898.922 1129.0000000000002 C 931.004 1122.5800000000002 944.07 1104.0400000000002 937.7620000000001 1074.1000000000001 C 935.2270000000001 1062.0900000000001 912.125 957.5390000000001 910.293 954.0700000000002 C 909.566 953.4220000000001 825.086 883.1720000000001 783.668 848.5940000000002 C 729.699 806.0470000000001 614.066 715.4610000000001 610.477 713.3320000000001 C 610.3589999999999 713.3280000000001 485.145 714.1910000000001 481.56999999999994 714.9380000000001 M 686.184 667.3160000000001 C 688.035 668.5860000000001 689.852 669.8980000000001 691.5699999999999 671.2810000000002 C 708.9259999999999 685.2660000000002 726.2499999999999 699.2890000000002 743.574 713.3090000000002 C 806.953 764.1020000000002 871.477 815.8050000000002 936.0659999999999 867.4300000000002 L 988.5509999999999 909.1880000000002 C 988.5509999999999 909.1880000000002 991.7539999999999 921.1210000000002 993.992 930.2770000000003 C 1004.9 974.8980000000003 1014.4699999999999 1019.8500000000003 1024.31 1064.7200000000003 C 1035.96 1117.8400000000001 1007.79 1171.6800000000003 956.66 1194.4100000000003 C 893.836 1222.3400000000004 818.48 1207.4900000000002 780.121 1156.2900000000004 C 766.8589999999999 1138.5900000000004 757.352 1116.0400000000004 752.6519999999999 1094.3100000000004 C 738.2069999999999 1027.5200000000004 725.2149999999999 960.4180000000003 712.18 893.3240000000004 C 642.535 892.8790000000004 572.895 892.4380000000004 503.26599999999996 891.1680000000005 C 488.051 890.8870000000005 473.496 888.8090000000004 459.94499999999994 884.4800000000005 C 455.42999999999995 883.0430000000005 451.0229999999999 881.3480000000005 446.73799999999994 879.3910000000004 C 407.34399999999994 858.1410000000004 375.25399999999996 820.2230000000004 370.28899999999993 774.6640000000004 C 369.52699999999993 769.4530000000004 369.06999999999994 764.2540000000005 368.91799999999995 759.0740000000004 C 367.04699999999997 696.9490000000004 408.66799999999995 638.2460000000004 473.01199999999994 632.8200000000004 C 528.742 628.1210000000004 585.348 633.8010000000004 645.727 634.8980000000004 C 659.1329999999999 645.6410000000004 672.629 656.4490000000004 686.184 667.3160000000004" stroke-linecap="round" />
</g>
</g>
</g>
<g transform="matrix(1.9211538461538462 0 0 1.9211538461538462 639.7411245192308 782.586164094575)" id="text-logo"  >
<g style=""  paint-order="stroke"   >
		<g transform="matrix(1 0 0 1 0 0)" id="text-logo-path-0"  >
<path style="stroke: none; stroke-width: 1; stroke-dasharray: none; stroke-linecap: butt; stroke-dashoffset: 0; stroke-linejoin: miter; stroke-miterlimit: 4; fill: rgb(18,77,114); fill-rule: nonzero; opacity: 1;"  paint-order="stroke"  transform=" translate(-188.225, 26.95)" d="M 11.78 0 L 11.78 -22.33 L 41.81 -22.33 L 41.81 0 L 51.05 0 L 51.05 -53.9 L 41.81 -53.9 L 41.81 -31.57 L 11.78 -31.57 L 11.78 -53.9 L 2.54 -53.9 L 2.54 0 Z M 56.13 -19.25 C 56.13 -5.16 61.98 0.77 75.69 0.77 C 83.24 0.77 88.86 -0.85 92.25 -6.01 L 84.55 -11.09 C 83.16 -9.01 81.47 -8.47 75.69 -8.47 C 67.91 -8.47 65.91 -9.39 65.45 -15.48 L 95.09 -15.48 C 95.17 -16.71 95.25 -17.86 95.25 -19.25 C 95.25 -33.65 89.24 -39.27 75.69 -39.27 C 62.14 -39.27 56.13 -33.65 56.13 -19.25 Z M 65.45 -23.18 C 65.91 -29.26 67.91 -30.03 75.69 -30.03 C 83.47 -30.03 85.47 -29.26 85.93 -23.18 Z M 119.2 -8.47 C 109.42 -8.47 108.8 -8.93 108.8 -14.32 C 108.8 -19.71 109.49 -20.17 119.2 -20.17 C 128.82 -20.17 129.44 -19.79 129.44 -14.32 C 129.44 -8.86 128.82 -8.47 119.2 -8.47 Z M 99.56 -14.32 C 99.56 -3.39 105.88 0.77 119.2 0.77 C 124.89 0.77 127.9 0 129.44 -1.77 L 129.44 0 L 138.68 0 L 138.68 -25.02 C 138.68 -34.73 130.98 -39.27 120.43 -39.27 L 109.49 -39.27 L 109.49 -30.03 L 120.43 -30.03 C 126.66 -30.03 129.21 -29.18 129.44 -25.49 C 127.9 -26.72 124.89 -27.1 119.2 -27.1 C 105.88 -27.1 99.56 -25.33 99.56 -14.32 Z M 153 0 L 153 -53.9 L 143.76 -53.9 L 143.76 0 Z M 162.7 -46.97 L 162.7 -38.42 L 158.08 -38.42 L 158.08 -30.72 L 162.7 -30.72 L 162.7 -20.02 C 162.7 -5.62 168.71 0 182.26 0 L 182.26 -9.24 C 173.1 -9.24 171.94 -10.32 171.94 -20.02 L 171.94 -30.72 L 179.64 -30.72 L 179.64 -38.42 L 171.94 -38.42 L 171.94 -46.97 Z M 217.22 -19.25 L 217.22 0 L 226.46 0 L 226.46 -19.25 C 226.46 -33.65 220.45 -39.27 206.9 -39.27 C 201.12 -39.27 198.12 -38.27 196.58 -35.96 L 196.58 -53.9 L 187.34 -53.9 L 187.34 0 L 196.58 0 L 196.58 -19.25 C 196.58 -28.95 197.74 -30.03 206.9 -30.03 C 216.06 -30.03 217.22 -28.95 217.22 -19.25 Z M 258.57 -8.47 C 243.78 -8.47 240.78 -11.55 240.78 -26.95 C 240.78 -42.43 243.86 -45.43 258.57 -45.43 C 273.27 -45.43 276.28 -42.35 276.28 -26.95 C 276.28 -11.47 273.2 -8.47 258.57 -8.47 Z M 231.54 -26.95 C 231.54 -7.16 239.24 0.77 258.57 0.77 C 277.58 0.77 285.52 -6.78 285.52 -26.95 C 285.52 -46.89 277.82 -54.67 258.57 -54.67 C 239.47 -54.67 231.54 -47.12 231.54 -26.95 Z M 320.47 -19.25 L 320.47 0 L 329.71 0 L 329.71 -19.25 C 329.71 -33.65 323.71 -39.27 310.16 -39.27 C 304.38 -39.27 301.38 -38.27 299.84 -35.96 L 299.84 -38.5 L 290.6 -38.5 L 290.6 0 L 299.84 0 L 299.84 -19.25 C 299.84 -28.95 300.99 -30.03 310.16 -30.03 C 319.32 -30.03 320.47 -28.95 320.47 -19.25 Z M 334.8 -19.25 C 334.8 -5.16 340.65 0.77 354.35 0.77 C 361.9 0.77 367.52 -0.85 370.91 -6.01 L 363.21 -11.09 C 361.82 -9.01 360.13 -8.47 354.35 -8.47 C 346.58 -8.47 344.57 -9.39 344.11 -15.48 L 373.76 -15.48 C 373.83 -16.71 373.91 -17.86 373.91 -19.25 C 373.91 -33.65 367.91 -39.27 354.35 -39.27 C 340.8 -39.27 334.8 -33.65 334.8 -19.25 Z M 344.11 -23.18 C 344.57 -29.26 346.58 -30.03 354.35 -30.03 C 362.13 -30.03 364.13 -29.26 364.59 -23.18 Z" stroke-linecap="round" />
</g>
</g>
</g>
<g transform="matrix(1.9211538461538462 0 0 1.9211538461538462 498.2841540985403 783.3258083253443)" id="tagline-f478105b-d4c1-49cf-a698-52f01a6dfb78-logo"  >
<g style=""  paint-order="stroke"   >
		<g transform="matrix(1 0 0 1 0 0)" id="tagline-f478105b-d4c1-49cf-a698-52f01a6dfb78-logo-path-0"  >
<path style="stroke: none; stroke-width: 1; stroke-dasharray: none; stroke-linecap: butt; stroke-dashoffset: 0; stroke-linejoin: miter; stroke-miterlimit: 4; fill: rgb(81,174,229); fill-rule: nonzero; opacity: 1;"  paint-order="stroke"  transform=" translate(-114.50000000000001, 26.564999999999998)" d="M 11.78 0 L 11.78 -22.33 L 41.81 -22.33 L 41.81 0 L 51.05 0 L 51.05 -53.9 L 41.81 -53.9 L 41.81 -31.57 L 11.78 -31.57 L 11.78 -53.9 L 2.54 -53.9 L 2.54 0 Z M 56.13 -19.25 C 56.13 -5.16 61.98 0.77 75.69 0.77 C 83.24 0.77 88.86 -0.85 92.25 -6.01 L 84.55 -11.09 C 83.16 -9.01 81.47 -8.47 75.69 -8.47 C 67.91 -8.47 65.91 -9.39 65.45 -15.48 L 95.09 -15.48 C 95.17 -16.71 95.25 -17.86 95.25 -19.25 C 95.25 -33.65 89.24 -39.27 75.69 -39.27 C 62.14 -39.27 56.13 -33.65 56.13 -19.25 Z M 65.45 -23.18 C 65.91 -29.26 67.91 -30.03 75.69 -30.03 C 83.47 -30.03 85.47 -29.26 85.93 -23.18 Z M 119.2 -8.47 C 109.42 -8.47 108.8 -8.93 108.8 -14.32 C 108.8 -19.71 109.49 -20.17 119.2 -20.17 C 128.82 -20.17 129.44 -19.79 129.44 -14.32 C 129.44 -8.86 128.82 -8.47 119.2 -8.47 Z M 99.56 -14.32 C 99.56 -3.39 105.88 0.77 119.2 0.77 C 124.89 0.77 127.9 0 129.44 -1.77 L 129.44 0 L 138.68 0 L 138.68 -25.02 C 138.68 -34.73 130.98 -39.27 120.43 -39.27 L 109.49 -39.27 L 109.49 -30.03 L 120.43 -30.03 C 126.66 -30.03 129.21 -29.18 129.44 -25.49 C 127.9 -26.72 124.89 -27.1 119.2 -27.1 C 105.88 -27.1 99.56 -25.33 99.56 -14.32 Z M 153 0 L 153 -53.9 L 143.76 -53.9 L 143.76 0 Z M 162.7 -46.97 L 162.7 -38.42 L 158.08 -38.42 L 158.08 -30.72 L 162.7 -30.72 L 162.7 -20.02 C 162.7 -5.62 168.71 0 182.26 0 L 182.26 -9.24 C 173.1 -9.24 171.94 -10.32 171.94 -20.02 L 171.94 -30.72 L 179.64 -30.72 L 179.64 -38.42 L 171.94 -38.42 L 171.94 -46.97 Z M 217.22 -19.25 L 217.22 0 L 226.46 0 L 226.46 -19.25 C 226.46 -33.65 220.45 -39.27 206.9 -39.27 C 201.12 -39.27 198.12 -38.27 196.58 -35.96 L 196.58 -53.9 L 187.34 -53.9 L 187.34 0 L 196.58 0 L 196.58 -19.25 C 196.58 -28.95 197.74 -30.03 206.9 -30.03 C 216.06 -30.03 217.22 -28.95 217.22 -19.25 Z" stroke-linecap="round" />
</g>
</g>
</g>
<g transform="matrix(1.9211538461538462 0 0 1.9211538461538462 641.3945006525951 918.8559904349515)" id="tagline-d878f4c1-97d3-429a-bbb7-e3e3f26c42e1-logo"  >
<g style=""  paint-order="stroke"   >
		<g transform="matrix(1 0 0 1 0 0)" id="tagline-d878f4c1-97d3-429a-bbb7-e3e3f26c42e1-logo-path-0"  >
<path style="stroke: none; stroke-width: 0.41558441558441545; stroke-dasharray: none; stroke-linecap: butt; stroke-dashoffset: 0; stroke-linejoin: miter; stroke-miterlimit: 4; fill: rgb(18,77,114); fill-rule: nonzero; opacity: 1;"  paint-order="stroke"  transform=" translate(-146.4, 11.2)" d="M 2.56 0 L 2.56 -22.4 L 4.99 -22.4 L 4.99 -12.26 L 16.58 -12.26 L 16.58 -22.4 L 19.01 -22.4 L 19.01 0 L 16.58 0 L 16.58 -10.08 L 4.99 -10.08 L 4.99 0 L 2.56 0 Z M 26.59 0 L 23.65 -2.94 L 23.65 -12.99 L 26.59 -15.94 L 34.78 -15.94 L 37.73 -12.99 L 37.73 -2.94 L 34.78 0 L 26.59 0 Z M 27.62 -2.11 L 33.76 -2.11 L 35.36 -3.68 L 35.36 -12.26 L 33.76 -13.82 L 27.62 -13.82 L 26.02 -12.26 L 26.02 -3.68 L 27.62 -2.11 Z M 42.21 0 L 42.21 -15.94 L 44.51 -15.94 L 44.51 -12.86 L 47.58 -15.94 L 51.39 -15.94 L 53.89 -13.44 L 56.38 -15.94 L 61.41 -15.94 L 64.35 -12.99 L 64.35 0 L 61.98 0 L 61.98 -12.26 L 60.38 -13.82 L 56.86 -13.82 L 54.62 -11.58 L 54.62 0 L 52.32 0 L 52.32 -12.26 L 50.72 -13.82 L 48.03 -13.82 L 44.58 -10.37 L 44.58 0 L 42.21 0 Z M 71.62 0 L 68.67 -2.94 L 68.67 -12.99 L 71.62 -15.94 L 79.65 -15.94 L 82.62 -12.99 L 82.62 -7.26 L 71.04 -7.26 L 71.04 -3.68 L 72.64 -2.11 L 78.62 -2.11 L 80.22 -3.68 L 80.22 -4.9 L 82.59 -4.9 L 82.59 -2.94 L 79.65 0 L 71.62 0 Z M 71.04 -9.31 L 80.26 -9.31 L 80.26 -12.26 L 78.66 -13.82 L 72.64 -13.82 L 71.04 -12.26 L 71.04 -9.31 Z M 98.11 0 L 94.59 -3.52 L 94.59 -18.88 L 98.11 -22.4 L 107.71 -22.4 L 111.1 -19.01 L 111.1 -16.96 L 108.67 -16.96 L 108.67 -18.21 L 106.62 -20.22 L 99.2 -20.22 L 97.02 -18.08 L 97.02 -4.32 L 99.2 -2.18 L 106.62 -2.18 L 108.67 -4.19 L 108.67 -5.44 L 111.1 -5.44 L 111.1 -3.39 L 107.71 0 L 98.11 0 Z M 117.09 0 L 114.46 -2.62 L 114.46 -6.69 L 117.09 -9.28 L 125.6 -9.28 L 125.6 -12.32 L 124 -13.89 L 118.56 -13.89 L 116.96 -12.32 L 116.96 -11.01 L 114.59 -11.01 L 114.59 -12.99 L 117.54 -15.94 L 124.99 -15.94 L 127.94 -12.99 L 127.94 0 L 125.66 0 L 125.66 -2.82 L 122.72 0 L 117.09 0 Z M 118.11 -2.05 L 122.24 -2.05 L 125.6 -5.28 L 125.6 -7.23 L 118.11 -7.23 L 116.83 -5.98 L 116.83 -3.3 L 118.11 -2.05 Z M 132.58 0 L 132.58 -15.94 L 134.88 -15.94 L 134.88 -13.09 L 137.73 -15.94 L 141.86 -15.94 L 141.86 -13.82 L 138.34 -13.82 L 134.94 -10.43 L 134.94 0 L 132.58 0 Z M 146.72 0 L 143.78 -2.94 L 143.78 -12.99 L 146.72 -15.94 L 154.75 -15.94 L 157.73 -12.99 L 157.73 -7.26 L 146.14 -7.26 L 146.14 -3.68 L 147.74 -2.11 L 153.73 -2.11 L 155.33 -3.68 L 155.33 -4.9 L 157.7 -4.9 L 157.7 -2.94 L 154.75 0 L 146.72 0 Z M 146.14 -9.31 L 155.36 -9.31 L 155.36 -12.26 L 153.76 -13.82 L 147.74 -13.82 L 146.14 -12.26 L 146.14 -9.31 Z M 172.48 0 L 169.54 -2.94 L 169.54 -4.99 L 171.94 -4.99 L 171.94 -3.74 L 173.47 -2.18 L 181.15 -2.18 L 182.75 -3.81 L 182.75 -8.83 L 181.15 -10.4 L 172.54 -10.4 L 169.6 -13.34 L 169.6 -19.46 L 172.54 -22.4 L 181.95 -22.4 L 184.9 -19.46 L 184.9 -17.38 L 182.53 -17.38 L 182.53 -18.66 L 180.93 -20.22 L 173.6 -20.22 L 172 -18.66 L 172 -14.14 L 173.6 -12.58 L 182.21 -12.58 L 185.15 -9.63 L 185.15 -3.01 L 182.14 0 L 172.48 0 Z M 191.94 0 L 188.99 -2.94 L 188.99 -12.99 L 191.94 -15.94 L 199.97 -15.94 L 202.94 -12.99 L 202.94 -7.26 L 191.36 -7.26 L 191.36 -3.68 L 192.96 -2.11 L 198.94 -2.11 L 200.54 -3.68 L 200.54 -4.9 L 202.91 -4.9 L 202.91 -2.94 L 199.97 0 L 191.94 0 Z M 191.36 -9.31 L 200.58 -9.31 L 200.58 -12.26 L 198.98 -13.82 L 192.96 -13.82 L 191.36 -12.26 L 191.36 -9.31 Z M 207.26 0 L 207.26 -15.94 L 209.57 -15.94 L 209.57 -13.09 L 212.42 -15.94 L 216.54 -15.94 L 216.54 -13.82 L 213.02 -13.82 L 209.63 -10.43 L 209.63 0 L 207.26 0 Z M 223.52 0 L 217.66 -15.94 L 220.1 -15.94 L 224.83 -2.37 L 224.96 -2.37 L 229.7 -15.94 L 232.13 -15.94 L 226.27 0 L 223.52 0 Z M 235.81 -18.62 L 234.85 -19.58 L 234.85 -20.99 L 235.81 -21.95 L 237.22 -21.95 L 238.18 -20.99 L 238.18 -19.58 L 237.22 -18.62 L 235.81 -18.62 Z M 235.33 0 L 235.33 -15.94 L 237.7 -15.94 L 237.7 0 L 235.33 0 Z M 245.44 0 L 242.5 -2.94 L 242.5 -12.99 L 245.44 -15.94 L 253.12 -15.94 L 256.06 -12.99 L 256.06 -11.04 L 253.7 -11.04 L 253.7 -12.26 L 252.1 -13.82 L 246.46 -13.82 L 244.86 -12.26 L 244.86 -3.68 L 246.46 -2.11 L 252.1 -2.11 L 253.7 -3.68 L 253.7 -4.9 L 256.06 -4.9 L 256.06 -2.94 L 253.12 0 L 245.44 0 Z M 262.53 0 L 259.58 -2.94 L 259.58 -12.99 L 262.53 -15.94 L 270.56 -15.94 L 273.54 -12.99 L 273.54 -7.26 L 261.95 -7.26 L 261.95 -3.68 L 263.55 -2.11 L 269.54 -2.11 L 271.14 -3.68 L 271.14 -4.9 L 273.5 -4.9 L 273.5 -2.94 L 270.56 0 L 262.53 0 Z M 261.95 -9.31 L 271.17 -9.31 L 271.17 -12.26 L 269.57 -13.82 L 263.55 -13.82 L 261.95 -12.26 L 261.95 -9.31 Z M 279.68 0 L 277.06 -2.62 L 277.06 -4.61 L 279.42 -4.61 L 279.42 -3.3 L 280.7 -2.05 L 286.59 -2.05 L 287.87 -3.3 L 287.87 -5.76 L 286.59 -7.04 L 279.71 -7.04 L 277.18 -9.57 L 277.18 -13.31 L 279.81 -15.94 L 287.3 -15.94 L 289.92 -13.31 L 289.92 -11.33 L 287.55 -11.33 L 287.55 -12.64 L 286.27 -13.89 L 280.83 -13.89 L 279.55 -12.64 L 279.55 -10.3 L 280.83 -9.02 L 287.62 -9.02 L 290.24 -6.4 L 290.24 -2.62 L 287.62 0 L 279.68 0 Z" stroke-linecap="round" />
</g>
</g>
</g>
</svg>