<?xml version="1.0" standalone="no"?>
<!DOCTYPE svg PUBLIC "-//W3C//DTD SVG 20010904//EN"
 "http://www.w3.org/TR/2001/REC-SVG-20010904/DTD/svg10.dtd">
<svg version="1.0" xmlns="http://www.w3.org/2000/svg"
 width="512.000000pt" height="512.000000pt" viewBox="0 0 512.000000 512.000000"
 preserveAspectRatio="xMidYMid meet">

<g transform="translate(0.000000,512.000000) scale(0.100000,-0.100000)"
fill="#000000" stroke="none">
<path d="M4134 4700 c-141 -26 -265 -92 -374 -200 -133 -132 -202 -301 -202
-495 0 -327 212 -599 532 -681 86 -22 244 -22 330 0 243 63 423 230 506 471
25 72 28 93 28 215 0 122 -3 143 -29 219 -73 214 -249 382 -470 451 -80 24
-241 34 -321 20z m267 -166 c94 -28 171 -74 240 -143 105 -105 160 -236 161
-381 1 -156 -48 -275 -157 -386 -108 -110 -238 -164 -393 -164 -241 0 -459
167 -527 403 -26 89 -22 229 8 316 60 170 189 294 367 352 72 24 226 25 301 3z"/>
<path d="M4190 4415 c0 -42 -2 -46 -40 -65 -67 -34 -118 -136 -106 -212 8 -48
45 -109 84 -136 16 -12 63 -37 104 -56 80 -36 98 -55 98 -105 0 -67 -108 -91
-225 -51 -32 11 -60 19 -62 17 -1 -2 -6 -30 -9 -63 l-6 -60 78 -18 c44 -10 85
-20 92 -22 7 -2 12 -21 12 -49 l0 -45 55 0 55 0 0 48 c0 46 1 48 47 72 131 69
152 242 41 335 -18 15 -66 43 -108 62 -96 44 -110 57 -110 104 0 29 6 42 26
58 30 24 60 26 134 10 28 -6 53 -9 55 -7 2 1 6 28 10 60 l7 56 -56 12 -56 11
0 45 0 44 -60 0 -60 0 0 -45z"/>
<path d="M3428 2925 c-218 -173 -401 -315 -408 -315 -6 0 -239 95 -518 211
-351 146 -513 208 -528 205 -26 -7 -1112 -778 -1132 -804 -6 -9 -12 -30 -12
-48 0 -42 42 -78 81 -70 15 3 264 174 554 382 336 240 533 374 543 371 9 -2
241 -97 514 -211 274 -113 509 -206 523 -206 16 0 102 62 272 197 136 108 322
255 413 326 91 72 173 139 183 150 25 28 22 79 -6 105 -51 48 -54 45 -479
-293z"/>
<path d="M3856 2859 l-26 -20 0 -1135 0 -1134 -135 0 -135 0 0 748 c0 749 0
749 -21 768 -20 18 -42 19 -410 19 l-388 0 -23 -23 -23 -23 -3 -744 -3 -745
-129 0 -130 0 0 805 c0 792 0 805 -20 825 -19 19 -33 20 -409 20 l-390 0 -20
-26 c-21 -27 -21 -33 -21 -825 l0 -799 -130 0 -130 0 0 565 c0 398 -3 571 -11
589 -21 45 -41 47 -443 44 l-378 -3 -19 -24 c-18 -22 -19 -47 -19 -597 l0
-574 -179 0 c-100 0 -192 -5 -207 -10 -57 -22 -72 -83 -29 -125 l24 -25 2511
0 2511 0 24 25 c30 29 32 74 6 106 -19 24 -23 24 -215 27 l-196 4 0 1129 0
1130 -25 24 -24 25 -379 0 c-369 0 -380 -1 -406 -21z m684 -1214 l0 -1075
-280 0 -280 0 0 1075 0 1075 280 0 280 0 0 -1075z m-2260 -325 l0 -750 -280 0
-280 0 0 743 c0 409 3 747 7 750 3 4 129 7 280 7 l273 0 0 -750z m1120 -60 l0
-690 -275 0 -275 0 0 690 0 690 275 0 275 0 0 -690z m-2250 -170 l0 -520 -280
0 -280 0 0 520 0 520 280 0 280 0 0 -520z"/>
</g>
</svg>
